<?xml version="1.0" encoding="UTF-8"?>
<svg version="1.1" xmlns="http://www.w3.org/2000/svg" width="275" height="305">
<path d="M0 0 C0 0.66 0 1.32 0 2 C0.73089844 2.26039062 1.46179688 2.52078125 2.21484375 2.7890625 C9.68713181 6.0378834 15.64062625 12.45682265 21.375 18.125 C21.87459229 18.61532715 22.37418457 19.1056543 22.88891602 19.61083984 C26.07749239 22.82685293 28.59958819 26.16767226 31 30 C31.43183594 30.67804688 31.86367187 31.35609375 32.30859375 32.0546875 C33.11132329 33.34905417 33.91187703 34.64477131 34.7109375 35.94140625 C35.54701355 37.27659437 36.40534868 38.59819638 37.2890625 39.90234375 C40.36043857 44.50940786 42.3178842 49.12403262 44.09765625 54.36328125 C44.83795956 56.5265052 45.66762584 58.58709589 46.5625 60.6875 C56.33121289 87.63197182 52.18927327 118.81593359 40.35546875 144.27734375 C32.52628666 160.35882099 20.35681095 174.42936023 6 185 C5.113125 185.65355469 4.22625 186.30710938 3.3125 186.98046875 C-8.04845748 194.96092394 -24.74286471 204 -39 204 C-39 194.1 -39 184.2 -39 174 C-32.565 172.02 -32.565 172.02 -26 170 C-22.16878649 168.12581642 -22.16878649 168.12581642 -19.0625 166 C-17.53302734 165.01 -17.53302734 165.01 -15.97265625 164 C-14.99167969 163.34 -14.01070312 162.68 -13 162 C-11.93394531 161.30132812 -10.86789063 160.60265625 -9.76953125 159.8828125 C5.41527632 149.55971342 16.31632204 129.61971239 20.375 111.9375 C22.63323354 96.3626728 22.96882837 76.68235035 14.9609375 62.68359375 C14 61 14 61 12.625 57.5625 C10.85301655 53.67776705 8.66633503 50.3945028 6.20703125 46.91796875 C5 45 5 45 5 43 C4.01 42.67 3.02 42.34 2 42 C1.55785156 41.25234375 1.11570313 40.5046875 0.66015625 39.734375 C-1.32214958 36.46940069 -3.57788098 34.61861909 -6.5625 32.25 C-7.53316406 31.47140625 -8.50382813 30.6928125 -9.50390625 29.890625 C-11.83029461 28.0083746 -11.83029461 28.0083746 -14 27 C-14 26.34 -14 25.68 -14 25 C-14.88171875 24.72800781 -15.7634375 24.45601562 -16.671875 24.17578125 C-19.76828922 23.08186026 -22.38513099 21.77490549 -25.25 20.1875 C-33.10837714 16.1491673 -41.47557902 14.14057682 -50 12 C-50 16.62 -50 21.24 -50 26 C-47.97875 26.433125 -45.9575 26.86625 -43.875 27.3125 C-35.02506031 29.38416873 -28.04022579 33.22590178 -21 39 C-21 39.66 -21 40.32 -21 41 C-20.360625 41.268125 -19.72125 41.53625 -19.0625 41.8125 C-17 43 -17 43 -16 46 C-15.01 46.33 -14.02 46.66 -13 47 C-13 47.66 -13 48.32 -13 49 C-12.34 49 -11.68 49 -11 49 C-11 49.66 -11 50.32 -11 51 C-10.34 51 -9.68 51 -9 51 C-4.47157333 56.33572278 -1.70395321 62.26730682 0 69 C0.34933594 70.24910156 0.69867188 71.49820313 1.05859375 72.78515625 C2.4277892 79.05816197 2.33550675 85.41163967 2.31567383 91.80151367 C2.31251108 93.93004509 2.33605185 96.05718602 2.36132812 98.18554688 C2.42073459 110.83774012 0.35634872 120.93739031 -8.25 130.5 C-9.1575 131.325 -10.065 132.15 -11 133 C-11.90298828 133.90878906 -11.90298828 133.90878906 -12.82421875 134.8359375 C-22.59872756 144.26716411 -36.23168578 151 -50 151 C-50 181.03 -50 211.06 -50 242 C-54.15706171 239.92146914 -55.21882097 238.72104951 -57.75 235 C-58.36359375 234.113125 -58.9771875 233.22625 -59.609375 232.3125 C-61 230 -61 230 -61 228 C-61.99 227.67 -62.98 227.34 -64 227 C-65.01765927 225.00892752 -66.01577854 223.00781177 -67 221 C-67.639375 220.360625 -68.27875 219.72125 -68.9375 219.0625 C-71.11935091 216.88064909 -72.40418203 214.6316165 -73.77734375 211.87890625 C-78.29036812 204.94355569 -83.19594055 203.83323454 -90.875 202.1875 C-100.98339086 199.78341927 -109.23364026 196.51498688 -118 191 C-118.58974609 190.63519531 -119.17949219 190.27039063 -119.78710938 189.89453125 C-126.81848522 185.52388323 -126.81848522 185.52388323 -130 183 C-130 182.34 -130 181.68 -130 181 C-130.721875 180.773125 -131.44375 180.54625 -132.1875 180.3125 C-135.54805009 178.74424329 -137.55424359 176.69480211 -140 174 C-140.64839844 173.33226562 -141.29679687 172.66453125 -141.96484375 171.9765625 C-146.5898204 167.08335346 -150.57845633 161.96039965 -154.3125 156.375 C-154.92484497 155.46161865 -154.92484497 155.46161865 -155.54956055 154.52978516 C-171.03153619 130.84099515 -175.84657934 100.85118615 -170.8684082 73.15234375 C-167.35811557 56.50581007 -160.95436581 40.18308515 -150 27 C-148.91912109 25.65421875 -148.91912109 25.65421875 -147.81640625 24.28125 C-147.07261719 23.3634375 -146.32882813 22.445625 -145.5625 21.5 C-144.82128906 20.5821875 -144.08007812 19.664375 -143.31640625 18.71875 C-139.85290886 14.65366706 -136.25889113 11.01939195 -131.9375 7.875 C-131.28652344 7.39804687 -130.63554687 6.92109375 -129.96484375 6.4296875 C-128.99224609 5.72199219 -128.99224609 5.72199219 -128 5 C-127.32066406 4.44570313 -126.64132813 3.89140625 -125.94140625 3.3203125 C-124 2 -124 2 -121 2 C-121 1.34 -121 0.68 -121 0 C-109.0859375 -5.95703125 -109.0859375 -5.95703125 -106.95605469 -7.00634766 C-105.30626254 -7.8444223 -103.6979138 -8.76335242 -102.1015625 -9.69921875 C-97.8108461 -11.49872576 -93.61267912 -11.73563697 -89 -12 C-88.70889708 -7.45969019 -88.5317853 -2.92177372 -88.375 1.625 C-88.29121094 2.91019531 -88.20742187 4.19539063 -88.12109375 5.51953125 C-88.0243386 9.25428002 -88.06113143 12.3800706 -89 16 C-91.95473946 19.01612507 -95.1231283 20.44097202 -99 22 C-100.59275556 22.83646569 -102.17783702 23.68794371 -103.75 24.5625 C-104.47832031 24.95953125 -105.20664063 25.3565625 -105.95703125 25.765625 C-107.95897654 26.97521336 -109.66812439 28.28732393 -111.4375 29.8125 C-114 32 -114 32 -116 32 C-116.226875 32.556875 -116.45375 33.11375 -116.6875 33.6875 C-118.36167263 36.63723273 -120.57832311 38.6373884 -123 41 C-123.556875 41.763125 -124.11375 42.52625 -124.6875 43.3125 C-125.120625 43.869375 -125.55375 44.42625 -126 45 C-126.66 45 -127.32 45 -128 45 C-129.07525194 47.65228812 -130.09456151 50.28368454 -131 53 C-131.66 53 -132.32 53 -133 53 C-133.17015625 53.53367187 -133.3403125 54.06734375 -133.515625 54.6171875 C-134.87237697 58.78847812 -136.33660148 62.84143941 -138.0625 66.875 C-141.65861273 75.80431533 -142.34633674 84.8913321 -142.25 94.4375 C-142.24033203 95.45030029 -142.23066406 96.46310059 -142.22070312 97.5065918 C-141.83990307 121.15617899 -132.01207667 139.97376648 -115.41748047 156.63525391 C-104.87848882 166.78216457 -91.63326835 171.45557722 -78 176 C-78.495 163.13 -78.495 163.13 -79 150 C-83.95 147.525 -83.95 147.525 -89 145 C-93.55943724 141.10175004 -97.15724636 136.28894931 -99.92578125 130.96484375 C-101.93184079 127.29557848 -104.31540008 123.84944315 -106.609375 120.35546875 C-108 118 -108 118 -108 116 C-108.66 116 -109.32 116 -110 116 C-111.01866229 114.34467377 -112.01810813 112.67739862 -113 111 C-113.99 110.505 -113.99 110.505 -115 110 C-115 109.34 -115 108.68 -115 108 C-115.66 108 -116.32 108 -117 108 C-117.98592155 105.94072044 -118.96347494 103.87743312 -119.9375 101.8125 C-120.48277344 100.66394531 -121.02804688 99.51539063 -121.58984375 98.33203125 C-123.86143745 92.96452592 -124.15821998 88.37751293 -124.1875 82.5625 C-124.20167969 81.28503906 -124.21585938 80.00757812 -124.23046875 78.69140625 C-123.72618067 70.61424967 -119.73354363 63.98278866 -115.46484375 57.30078125 C-114.35607384 55.55927332 -113.2686061 53.80417887 -112.19140625 52.04296875 C-111.57136719 51.03878906 -110.95132813 50.03460938 -110.3125 49 C-109.73113281 48.05125 -109.14976563 47.1025 -108.55078125 46.125 C-108.03902344 45.42375 -107.52726562 44.7225 -107 44 C-106.34 44 -105.68 44 -105 44 C-104.731875 43.195625 -104.46375 42.39125 -104.1875 41.5625 C-103.795625 40.716875 -103.40375 39.87125 -103 39 C-102.01 38.67 -101.02 38.34 -100 38 C-100 37.34 -100 36.68 -100 36 C-98.40432262 35.19135885 -96.79774718 34.40422451 -95.1875 33.625 C-94.29417969 33.18414062 -93.40085937 32.74328125 -92.48046875 32.2890625 C-89 31 -89 31 -78 29 C-78 14.15 -78 -0.7 -78 -16 C-51.79040219 -18.91217753 -22.27054924 -15.50592482 0 0 Z " fill="#0B3053" transform="translate(198,41)"/>
<path d="M0 0 C0.79921875 0.00902344 1.5984375 0.01804688 2.421875 0.02734375 C3.02515625 0.03894531 3.6284375 0.05054688 4.25 0.0625 C3.92 0.7225 3.59 1.3825 3.25 2.0625 C0.80844387 2.86947995 -1.57519005 3.55927391 -4.0625 4.1875 C-5.07860352 4.46013672 -5.07860352 4.46013672 -6.11523438 4.73828125 C-9.47201807 5.61111064 -12.25580142 6.0625 -15.75 6.0625 C-15.75 36.0925 -15.75 66.1225 -15.75 97.0625 C-16.74 96.7325 -17.73 96.4025 -18.75 96.0625 C-18.42 65.7025 -18.09 35.3425 -17.75 4.0625 C-5.32746479 -0.07834507 -5.32746479 -0.07834507 0 0 Z " fill="#0E1D29" transform="translate(163.75,185.9375)"/>
<path d="M0 0 C0.33 0.99 0.66 1.98 1 3 C1.66 3 2.32 3 3 3 C3.07415168 7.78715623 3.12860204 12.57397827 3.16479492 17.36157227 C3.17988243 18.99021223 3.20035506 20.61881156 3.22631836 22.24731445 C3.26270449 24.58815535 3.2797262 26.92845919 3.29296875 29.26953125 C3.30845261 29.99775589 3.32393646 30.72598053 3.33988953 31.47627258 C3.34159134 36.58695881 3.34159134 36.58695881 1.5246582 38.78393555 C1.021521 39.18523682 0.51838379 39.58653809 0 40 C-0.7269226 43.10839021 -0.7269226 43.10839021 -1 46 C-1.99 46 -2.98 46 -4 46 C-4.12375 46.639375 -4.2475 47.27875 -4.375 47.9375 C-4.58125 48.618125 -4.7875 49.29875 -5 50 C-5.99 50.495 -5.99 50.495 -7 51 C-6.54363464 49.603522 -6.08480512 48.2078492 -5.625 46.8125 C-5.36976563 46.03519531 -5.11453125 45.25789063 -4.8515625 44.45703125 C-4.29054761 42.83832316 -3.67943731 41.23599756 -3.01660156 39.65625 C0.35090613 30.85738264 0.26062841 21.60304638 0.125 12.3125 C0.11597656 11.12205078 0.10695312 9.93160156 0.09765625 8.70507812 C0.07434772 5.80316633 0.04163123 2.90169683 0 0 Z " fill="#566B7D" transform="translate(219,121)"/>
<path d="M0 0 C0 0.33 0 0.66 0 1 C-10.23 1 -20.46 1 -31 1 C-31 1.66 -31 2.32 -31 3 C-31.66 3 -32.32 3 -33 3 C-33.33 16.86 -33.66 30.72 -34 45 C-34.33 45 -34.66 45 -35 45 C-35 30.15 -35 15.3 -35 0 C-23.26356723 -1.30404809 -11.72122264 -1.57785689 0 0 Z " fill="#56697C" transform="translate(155,25)"/>
<path d="M0 0 C1.4606285 2.64738916 2 3.89448334 2 7 C1.67 7.99 1.34 8.98 1 10 C0.76843206 13.28709722 0.81106489 16.58056751 0.8125 19.875 C0.80968018 20.81649902 0.80686035 21.75799805 0.80395508 22.72802734 C0.84130433 29.23571592 1.42817001 35.24131898 2.85546875 41.6015625 C2.92701172 42.78878906 2.92701172 42.78878906 3 44 C1.5090332 45.64990234 1.5090332 45.64990234 0 47 C-1.97096117 39.12513463 -2.30401798 31.59369444 -2.25 23.5 C-2.25773437 22.34113281 -2.26546875 21.18226563 -2.2734375 19.98828125 C-2.25784344 13.08790802 -1.67678071 6.69948374 0 0 Z " fill="#344B63" transform="translate(28,112)"/>
<path d="M0 0 C0.66 0 1.32 0 2 0 C2 7.92 2 15.84 2 24 C1.01 24 0.02 24 -1 24 C-1.98970409 15.58751519 -2.00107527 8.25236826 0 0 Z " fill="#36516D" transform="translate(52,121)"/>
<path d="M0 0 C2.23949866 2.05192345 3.56736373 3.82680913 4.75390625 6.6171875 C5.05103516 7.30683594 5.34816406 7.99648437 5.65429688 8.70703125 C5.95400391 9.42246094 6.25371094 10.13789063 6.5625 10.875 C6.86607422 11.58269531 7.16964844 12.29039062 7.48242188 13.01953125 C9.0383157 16.66011941 10.54824851 20.31645145 12 24 C11.34 24 10.68 24 10 24 C7 19.61538462 7 19.61538462 7 17 C6.01 17 5.02 17 4 17 C3.87625 15.865625 3.7525 14.73125 3.625 13.5625 C3.41875 12.386875 3.2125 11.21125 3 10 C2.34 9.67 1.68 9.34 1 9 C0.5859375 6.93359375 0.5859375 6.93359375 0.375 4.4375 C0.30023438 3.61121094 0.22546875 2.78492188 0.1484375 1.93359375 C0.09945312 1.29550781 0.05046875 0.65742188 0 0 Z " fill="#2C3C48" transform="translate(56,158)"/>
<path d="M0 0 C1.23556641 0.01740234 1.23556641 0.01740234 2.49609375 0.03515625 C3.32238281 0.04417969 4.14867187 0.05320313 5 0.0625 C5.63808594 0.07410156 6.27617187 0.08570313 6.93359375 0.09765625 C5.93359375 2.09765625 5.93359375 2.09765625 2.765625 3.16796875 C1.42804172 3.52803603 0.08804319 3.87921895 -1.25390625 4.22265625 C-1.91455078 4.40441406 -2.57519531 4.58617187 -3.25585938 4.7734375 C-7.28210654 5.83067516 -10.91051722 6.29155465 -15.06640625 6.09765625 C-14.73640625 5.10765625 -14.40640625 4.11765625 -14.06640625 3.09765625 C-12.89271484 2.89849609 -12.89271484 2.89849609 -11.6953125 2.6953125 C-10.68339844 2.51871094 -9.67148438 2.34210938 -8.62890625 2.16015625 C-7.61957031 1.98613281 -6.61023438 1.81210938 -5.5703125 1.6328125 C-3.03455267 1.09084823 -2.481563 0.11727613 0 0 Z " fill="#3C5369" transform="translate(161.06640625,185.90234375)"/>
<path d="M0 0 C2.31 0.33 4.62 0.66 7 1 C7 5.95 7 10.9 7 16 C3.52260261 11.65325326 2.4564588 10.19430401 1.25 5.1875 C1.00765625 4.21167969 0.7653125 3.23585937 0.515625 2.23046875 C0.34546875 1.49441406 0.1753125 0.75835937 0 0 Z " fill="#39546C" transform="translate(33,174)"/>
<path d="M0 0 C5.81088186 4.48268029 8.13398779 11.0424402 10 18 C9.6328125 20.40234375 9.6328125 20.40234375 9 22 C8.5978125 20.5459375 8.5978125 20.5459375 8.1875 19.0625 C7.795625 18.051875 7.40375 17.04125 7 16 C6.01 15.67 5.02 15.34 4 15 C2.8125 12.9375 2.8125 12.9375 2 11 C2.99 11 3.98 11 5 11 C4.6390625 10.37351562 4.278125 9.74703125 3.90625 9.1015625 C3.4421875 8.28429687 2.978125 7.46703125 2.5 6.625 C1.80390625 5.40683594 1.80390625 5.40683594 1.09375 4.1640625 C0 2 0 2 0 0 Z " fill="#34485C" transform="translate(233,80)"/>
<path d="M0 0 C0.99 0.33 1.98 0.66 3 1 C2 3 1 5 0 7 C-0.66 7 -1.32 7 -2 7 C-3.07525194 9.65228812 -4.09456151 12.28368454 -5 15 C-5.66 15 -6.32 15 -7 15 C-7.33 15.99 -7.66 16.98 -8 18 C-8.33 18 -8.66 18 -9 18 C-9 16.35 -9 14.7 -9 13 C-8.01 13 -7.02 13 -6 13 C-6.33 12.01 -6.66 11.02 -7 10 C-6.34 9.67 -5.68 9.34 -5 9 C-4.34786708 6.97536745 -4.34786708 6.97536745 -4 5 C-3.01 5 -2.02 5 -1 5 C-0.67 3.35 -0.34 1.7 0 0 Z " fill="#4B5A6A" transform="translate(72,79)"/>
<path d="M0 0 C2 2 2 2 2 4 C2.78375 4.268125 3.5675 4.53625 4.375 4.8125 C8.73564683 6.78517357 9.9767371 10.8615077 12 15 C7.83731749 13.64165097 5.53286477 11.87878177 2.625 8.625 C1.91601562 7.85414063 1.20703125 7.08328125 0.4765625 6.2890625 C-1 4 -1 4 -0.7265625 1.7109375 C-0.48679687 1.14632812 -0.24703125 0.58171875 0 0 Z " fill="#495E76" transform="translate(102,173)"/>
<path d="M0 0 C0 9.57 0 19.14 0 29 C-0.66 29 -1.32 29 -2 29 C-1.67 20.42 -1.34 11.84 -1 3 C-3.64 3 -6.28 3 -9 3 C-8.67 2.34 -8.34 1.68 -8 1 C-5.30114269 0.42577504 -2.76207303 0 0 0 Z " fill="#15304B" transform="translate(107,29)"/>
<path d="M0 0 C3.75492877 1.52410941 5.80785724 3.77268765 8.4375 6.8125 C11.52665683 10.3349544 14.63428141 13.74285298 18 17 C13.51288663 15.58976437 11.28213054 13.28213054 8 10 C7.0925 9.67 6.185 9.34 5.25 9 C4.13625 8.505 4.13625 8.505 3 8 C2.3125 5.4375 2.3125 5.4375 2 3 C1.34 2.67 0.68 2.34 0 2 C0 1.34 0 0.68 0 0 Z " fill="#586673" transform="translate(70,186)"/>
<path d="M0 0 C4.40510648 2.00927344 7.29517812 4.92769156 10.6875 8.3125 C11.28111328 8.88162109 11.87472656 9.45074219 12.48632812 10.03710938 C15.64942676 13.17856765 17.76303591 15.32215342 18 20 C12 14 12 14 10.1875 11.625 C8.08116479 8.91455314 8.08116479 8.91455314 5.3125 6.875 C3 5 3 5 2 2 C1.34 2 0.68 2 0 2 C0 1.34 0 0.68 0 0 Z " fill="#718089" transform="translate(208,50)"/>
<path d="M0 0 C2.375 0.75 2.375 0.75 5 2 C5.68268138 3.32520503 6.3507041 4.65812182 7 6 C8.32594105 6.36162029 9.65938457 6.69728039 11 7 C12 10 12 10 11 13 C5.9512398 11.31707993 3.60952273 7.13497336 1.1875 2.625 C0.795625 1.75875 0.40375 0.8925 0 0 Z " fill="#193551" transform="translate(124,252)"/>
<path d="M0 0 C0 3.5747073 -0.55352838 4.46916729 -3 7 C-5.6875 7.75 -5.6875 7.75 -8 8 C-8 8.66 -8 9.32 -8 10 C-9.32 9.34 -10.64 8.68 -12 8 C-7.375 4 -7.375 4 -4 4 C-4 3.34 -4 2.68 -4 2 C-2.68 1.34 -1.36 0.68 0 0 Z " fill="#3E546A" transform="translate(81,39)"/>
<path d="M0 0 C0 0.66 0 1.32 0 2 C-5.89738492 4.29342747 -10.66606918 5.34548714 -17 5 C-14.39104541 2.39104541 -12.01733462 1.89026736 -8.5 0.8125 C-7.3346875 0.44769531 -6.169375 0.08289063 -4.96875 -0.29296875 C-2 -1 -2 -1 0 0 Z " fill="#485D75" transform="translate(119,71)"/>
<path d="M0 0 C0.99 0 1.98 0 3 0 C3.33692785 1.60341555 3.66941093 3.20776555 4 4.8125 C4.185625 5.70582031 4.37125 6.59914063 4.5625 7.51953125 C5 10 5 10 5 13 C4.34 13 3.68 13 3 13 C3 12.01 3 11.02 3 10 C2.34 10 1.68 10 1 10 C0.67 6.7 0.34 3.4 0 0 Z " fill="#19314A" transform="translate(217,111)"/>
<path d="M0 0 C1.92578125 0.70703125 1.92578125 0.70703125 4 2 C4.79296875 4.13671875 4.79296875 4.13671875 5.1875 6.6875 C5.33316406 7.57566406 5.47882813 8.46382812 5.62890625 9.37890625 C5.81259766 10.67634766 5.81259766 10.67634766 6 12 C6.11214844 12.73089844 6.22429687 13.46179688 6.33984375 14.21484375 C6.57758075 15.80735598 6.79174327 17.40336504 7 19 C6.34 19 5.68 19 5 19 C3.02905192 14.07262981 2.8200072 10.21979128 3 5 C2.34 5 1.68 5 1 5 C0.67 3.35 0.34 1.7 0 0 Z " fill="#142B42" transform="translate(190,97)"/>
<path d="M0 0 C1 2 1 2 0.1875 5.0625 C-1 8 -1 8 -3 9 C-3.59505999 11.04524321 -3.95466781 13.09333957 -4.33984375 15.1875 C-4.55769531 15.785625 -4.77554688 16.38375 -5 17 C-5.99 17.33 -6.98 17.66 -8 18 C-7.01179657 11.28021667 -3.35367007 5.78218978 0 0 Z " fill="#637586" transform="translate(83,97)"/>
<path d="M0 0 C4.77046664 0.57823838 7.99802151 2.46028288 12 5 C12.33 5.66 12.66 6.32 13 7 C9.14521782 7.35858439 7.42240542 7.2754818 4.125 5.125 C3.42375 4.42375 2.7225 3.7225 2 3 C2 2.34 2 1.68 2 1 C1.34 0.67 0.68 0.34 0 0 Z " fill="#445666" transform="translate(158,70)"/>
<path d="M0 0 C1.32 0.33 2.64 0.66 4 1 C2.33333333 2.66666667 0.66666667 4.33333333 -1 6 C-1.556875 6.598125 -2.11375 7.19625 -2.6875 7.8125 C-4 9 -4 9 -6 9 C-6 7.68 -6 6.36 -6 5 C-5.01 5 -4.02 5 -3 5 C-3 4.34 -3 3.68 -3 3 C-2.01 2.67 -1.02 2.34 0 2 C0 1.34 0 0.68 0 0 Z " fill="#546778" transform="translate(207,218)"/>
<path d="M0 0 C0.33 0 0.66 0 1 0 C1.22142255 1.95689659 1.4267568 3.91561952 1.625 5.875 C1.74101562 6.96554688 1.85703125 8.05609375 1.9765625 9.1796875 C1.98429688 10.11039063 1.99203125 11.04109375 2 12 C1.34 12.66 0.68 13.32 0 14 C-2.53191489 5.06382979 -2.53191489 5.06382979 0 0 Z " fill="#152838" transform="translate(245,106)"/>
<path d="M0 0 C3.125 -0.1875 3.125 -0.1875 6 0 C6.66 1.32 7.32 2.64 8 4 C6.68 3.34 5.36 2.68 4 2 C4 2.99 4 3.98 4 5 C2.68 5.33 1.36 5.66 0 6 C0 5.34 0 4.68 0 4 C-0.66 3.67 -1.32 3.34 -2 3 C-1.34 2.01 -0.68 1.02 0 0 Z " fill="#1E3C5C" transform="translate(173,82)"/>
<path d="M0 0 C0 0.66 0 1.32 0 2 C-5.445 4.475 -5.445 4.475 -11 7 C-11 6.01 -11 5.02 -11 4 C-10.01 4 -9.02 4 -8 4 C-8 3.01 -8 2.02 -8 1 C-5.07175348 0.02391783 -3.04386724 -0.08226668 0 0 Z " fill="#3B4F62" transform="translate(101,60)"/>
<path d="M0 0 C0.66 0 1.32 0 2 0 C1.32902328 4.19360449 -0.8558394 7.40334352 -3 11 C-3.66 11 -4.32 11 -5 11 C-5.33 9.35 -5.66 7.7 -6 6 C-5.67 6.66 -5.34 7.32 -5 8 C-4.34 8 -3.68 8 -3 8 C-2.67 6.02 -2.34 4.04 -2 2 C-1.34 2 -0.68 2 0 2 C0 1.34 0 0.68 0 0 Z " fill="#394956" transform="translate(234,187)"/>
<path d="M0 0 C1.32 0.33 2.64 0.66 4 1 C2.625 2.5 2.625 2.5 1 4 C0.34 4 -0.32 4 -1 4 C-1.226875 4.639375 -1.45375 5.27875 -1.6875 5.9375 C-3 8 -3 8 -5.625 8.75 C-6.40875 8.8325 -7.1925 8.915 -8 9 C-6.8553125 7.88625 -6.8553125 7.88625 -5.6875 6.75 C-3.5606298 4.5736677 -1.7440044 2.47832204 0 0 Z " fill="#5D7181" transform="translate(63,51)"/>
<path d="M0 0 C4.75 0.75 4.75 0.75 7 3 C7.70211894 4.65204456 8.36971413 6.31923769 9 8 C9.33 8.66 9.66 9.32 10 10 C6.54804233 8.5741914 4.8985744 6.90253666 2.75 3.875 C1.96882813 2.78832031 1.96882813 2.78832031 1.171875 1.6796875 C0.78515625 1.12539062 0.3984375 0.57109375 0 0 Z " fill="#53687C" transform="translate(50,205)"/>
<path d="M0 0 C3.18616521 2.94451785 4.55828766 5.89111984 6 10 C5.6875 12.4375 5.6875 12.4375 5 14 C4.71125 13.360625 4.4225 12.72125 4.125 12.0625 C3.17176549 9.84793921 3.17176549 9.84793921 1 9 C0.5859375 6.93359375 0.5859375 6.93359375 0.375 4.4375 C0.30023438 3.61121094 0.22546875 2.78492188 0.1484375 1.93359375 C0.09945312 1.29550781 0.05046875 0.65742188 0 0 Z " fill="#505D69" transform="translate(56,158)"/>
<path d="M0 0 C0.66 0 1.32 0 2 0 C2.50435694 1.9363704 3.00333874 3.87414146 3.5 5.8125 C3.7784375 6.89144531 4.056875 7.97039062 4.34375 9.08203125 C5 12 5 12 5 15 C4.34 15 3.68 15 3 15 C2.49564306 13.0636296 1.99666126 11.12585854 1.5 9.1875 C1.2215625 8.10855469 0.943125 7.02960938 0.65625 5.91796875 C0 3 0 3 0 0 Z " fill="#505864" transform="translate(194,103)"/>
<path d="M0 0 C0.84406458 2.36546493 1.21729813 3.50952707 0.1796875 5.8515625 C-2.51425189 9.5133843 -4.40399799 11.81817091 -9 13 C-8.60167969 12.48050781 -8.20335937 11.96101562 -7.79296875 11.42578125 C-4.97822677 7.72073158 -2.28614026 4.06424935 0 0 Z " fill="#586E7D" transform="translate(205,182)"/>
<path d="M0 0 C6.32243793 0.20394961 7.24777842 0.24777842 12 5 C7.38 4.01 2.76 3.02 -2 2 C-1.34 1.34 -0.68 0.68 0 0 Z " fill="#4E6478" transform="translate(156,53)"/>
<path d="M0 0 C1.875 0.125 1.875 0.125 4 1 C5.125 3.75 5.125 3.75 6 7 C6.65411685 8.67163195 7.31653318 10.34015202 8 12 C4.72257902 8.89973691 2.06895163 6.02901106 0 2 C0 1.34 0 0.68 0 0 Z " fill="#586C7F" transform="translate(137,269)"/>
<path d="M0 0 C-0.33 1.65 -0.66 3.3 -1 5 C-1.78375 5.12375 -2.5675 5.2475 -3.375 5.375 C-6.14057822 5.79117993 -6.14057822 5.79117993 -8 8 C-8.66 7.34 -9.32 6.68 -10 6 C-8.71283353 4.99421411 -7.42011342 3.99553202 -6.125 3 C-5.40570313 2.443125 -4.68640625 1.88625 -3.9453125 1.3125 C-2 0 -2 0 0 0 Z " fill="#556A7D" transform="translate(189,201)"/>
<path d="M0 0 C-1.49097658 3.7952131 -3.75700849 5.61042731 -7 8 C-6.62952882 5.25851328 -6.31412056 3.41406801 -4.625 1.1875 C-3 0 -3 0 0 0 Z " fill="#425464" transform="translate(225,204)"/>
<path d="M0 0 C1 4 1 4 0.3125 6 C-1.20988656 8.31982713 -2.97571423 10.11066661 -5 12 C-5.66 11.67 -6.32 11.34 -7 11 C-4.69 7.37 -2.38 3.74 0 0 Z " fill="#496075" transform="translate(91,85)"/>
<path d="M0 0 C0.99 0 1.98 0 3 0 C4.42258812 3.82320557 5.24042276 6.91281305 5 11 C2.56097476 8.56097476 1.40821408 6.13647681 0 3 C0 2.01 0 1.02 0 0 Z " fill="#586A7D" transform="translate(212,99)"/>
<path d="M0 0 C4.31392226 0.4793247 6.16569547 1.7457985 9 5 C2.25 4.125 2.25 4.125 0 3 C0 2.01 0 1.02 0 0 Z " fill="#4A6074" transform="translate(188,37)"/>
<path d="M0 0 C0.99 0.33 1.98 0.66 3 1 C2.67 3.64 2.34 6.28 2 9 C0.4375 7.875 0.4375 7.875 -1 6 C-0.6875 2.8125 -0.6875 2.8125 0 0 Z " fill="#13273B" transform="translate(54,152)"/>
<path d="M0 0 C0.33 0.99 0.66 1.98 1 3 C1.66 2.67 2.32 2.34 3 2 C2.67 3.65 2.34 5.3 2 7 C0.68 6.67 -0.64 6.34 -2 6 C-2.33 4.68 -2.66 3.36 -3 2 C-2.01 1.34 -1.02 0.68 0 0 Z " fill="#16395B" transform="translate(68,48)"/>
<path d="M0 0 C3.3 0.33 6.6 0.66 10 1 C6.71299843 2.64350079 4.52069985 3.41321669 1 4 C0.67 2.68 0.34 1.36 0 0 Z " fill="#2F485D" transform="translate(153,26)"/>
<path d="M0 0 C0.66 0 1.32 0 2 0 C1.125 4.875 1.125 4.875 0 6 C-1.66617115 6.04063832 -3.33388095 6.042721 -5 6 C-3.38405168 3.95880212 -1.7143618 1.95927063 0 0 Z " fill="#53667A" transform="translate(194,195)"/>
<path d="M0 0 C2 3.75 2 3.75 2 6 C1.01 6 0.02 6 -1 6 C-1.12375 6.639375 -1.2475 7.27875 -1.375 7.9375 C-1.58125 8.618125 -1.7875 9.29875 -2 10 C-2.99 10.495 -2.99 10.495 -4 11 C-3.52269162 9.5410574 -3.04308958 8.08286504 -2.5625 6.625 C-2.29566406 5.81289062 -2.02882812 5.00078125 -1.75390625 4.1640625 C-1 2 -1 2 0 0 Z " fill="#677A8D" transform="translate(216,161)"/>
<path d="M0 0 C0.125 5.75 0.125 5.75 -1 8 C-1.66 8 -2.32 8 -3 8 C-3.33 6.02 -3.66 4.04 -4 2 C-1 0 -1 0 0 0 Z " fill="#30475C" transform="translate(193,161)"/>
<path d="M0 0 C0 2.31 0 4.62 0 7 C-0.99 7.33 -1.98 7.66 -3 8 C-3.33 5.69 -3.66 3.38 -4 1 C-2 0 -2 0 0 0 Z " fill="#506272" transform="translate(56,147)"/>
<path d="M0 0 C1.88391785 3.26545761 2.49287967 6.28111761 3 10 C-1.75286041 5.70709382 -1.75286041 5.70709382 -2 2 C-1.34 1.34 -0.68 0.68 0 0 Z " fill="#445970" transform="translate(92,155)"/>
<path d="M0 0 C1.98 0.66 3.96 1.32 6 2 C5.01 2.495 5.01 2.495 4 3 C4 3.99 4 4.98 4 6 C4.66 6 5.32 6 6 6 C6 6.66 6 7.32 6 8 C2.24623848 6.74874616 1.75926711 5.4347596 0 2 C0 1.34 0 0.68 0 0 Z " fill="#506680" transform="translate(207,90)"/>
<path d="M0 0 C4.0042343 3.49087093 5.62671065 5.64951939 6 11 C2.90407165 7.4912812 1.25805377 4.50802601 0 0 Z " fill="#687480" transform="translate(233,80)"/>
<path d="M0 0 C5.78461538 4.30769231 5.78461538 4.30769231 6.875 7.8125 C6.936875 8.8953125 6.936875 8.8953125 7 10 C0.75 3.75 0.75 3.75 0 0 Z " fill="#525E68" transform="translate(219,60)"/>
<path d="M0 0 C0.33 0.66 0.66 1.32 1 2 C1.99 2 2.98 2 4 2 C4 2.66 4 3.32 4 4 C1.36 4 -1.28 4 -4 4 C-4 3.01 -4 2.02 -4 1 C-2.68 0.67 -1.36 0.34 0 0 Z " fill="#102C45" transform="translate(163,27)"/>
<path d="M0 0 C2.375 0.5625 2.375 0.5625 5 2 C6.3125 5.625 6.3125 5.625 7 9 C6.34 9 5.68 9 5 9 C3.35 6.03 1.7 3.06 0 0 Z " fill="#697988" transform="translate(124,252)"/>
<path d="M0 0 C-2.97180943 1.89865603 -5.51460083 3.35455571 -9 4 C-9 3.34 -9 2.68 -9 2 C-8.34 2 -7.68 2 -7 2 C-7 1.34 -7 0.68 -7 0 C-2.25 -1.125 -2.25 -1.125 0 0 Z " fill="#667888" transform="translate(194,232)"/>
<path d="M0 0 C0.33 0 0.66 0 1 0 C1.36923077 5.53846154 1.36923077 5.53846154 -0.5 7.875 C-1.2425 8.431875 -1.2425 8.431875 -2 9 C-2 6.69 -2 4.38 -2 2 C-1.34 2 -0.68 2 0 2 C0 1.34 0 0.68 0 0 Z " fill="#536270" transform="translate(197,153)"/>
<path d="M0 0 C0.66 0 1.32 0 2 0 C2.33 3.3 2.66 6.6 3 10 C0 7 0 7 -0.1875 3.3125 C-0.125625 2.219375 -0.06375 1.12625 0 0 Z " fill="#0A2136" transform="translate(243,155)"/>
<path d="M0 0 C1.9375 0.6875 1.9375 0.6875 4 2 C4.75 4.625 4.75 4.625 5 7 C3.0625 6.3125 3.0625 6.3125 1 5 C0.25 2.375 0.25 2.375 0 0 Z " fill="#31495F" transform="translate(77,138)"/>
<path d="M0 0 C1.65 0 3.3 0 5 0 C5.33 2.31 5.66 4.62 6 7 C4.5 5.625 4.5 5.625 3 4 C3 3.34 3 2.68 3 2 C2.01 1.67 1.02 1.34 0 1 C0 0.67 0 0.34 0 0 Z " fill="#607384" transform="translate(200,82)"/>
<path d="M0 0 C2.66666667 2.66666667 5.33333333 5.33333333 8 8 C6.68 8 5.36 8 4 8 C0 2.88888889 0 2.88888889 0 0 Z " fill="#102A42" transform="translate(220,63)"/>
<path d="M0 0 C2.475 0.495 2.475 0.495 5 1 C5 3.31 5 5.62 5 8 C2.74754119 5.31158141 1.11786042 3.35358125 0 0 Z " fill="#102E49" transform="translate(141,273)"/>
<path d="M0 0 C1.32 0.33 2.64 0.66 4 1 C3.01 2.32 2.02 3.64 1 5 C0.01 4.67 -0.98 4.34 -2 4 C-2 3.34 -2 2.68 -2 2 C-1.34 2 -0.68 2 0 2 C0 1.34 0 0.68 0 0 Z " fill="#384C62" transform="translate(213,212)"/>
<path d="M0 0 C0.6875 1.8125 0.6875 1.8125 1 4 C-0.3125 5.75 -0.3125 5.75 -2 7 C-2.66 7 -3.32 7 -4 7 C-2.92598892 4.08482708 -2.22189824 2.22189824 0 0 Z " fill="#1D3558" transform="translate(214,170)"/>
<path d="M0 0 C0.66 0 1.32 0 2 0 C1.67 2.31 1.34 4.62 1 7 C0.34 7 -0.32 7 -1 7 C-1.04254356 5.00045254 -1.04080783 2.99958364 -1 1 C-0.67 0.67 -0.34 0.34 0 0 Z " fill="#213A52" transform="translate(188,165)"/>
<path d="M0 0 C1.125 1.75 1.125 1.75 2 4 C1.125 6.25 1.125 6.25 0 8 C-0.33 8 -0.66 8 -1 8 C-1.33 5.69 -1.66 3.38 -2 1 C-1.34 0.67 -0.68 0.34 0 0 Z " fill="#28445F" transform="translate(29,151)"/>
<path d="M0 0 C0.99 0 1.98 0 3 0 C3 2.97 3 5.94 3 9 C2.34 7.68 1.68 6.36 1 5 C0.34 4.34 -0.32 3.68 -1 3 C-0.67 2.01 -0.34 1.02 0 0 Z " fill="#133555" transform="translate(243,150)"/>
<path d="M0 0 C0.99 0 1.98 0 3 0 C4.46726798 3.81489674 3.43336419 6.29011622 2 10 C1.67 10 1.34 10 1 10 C0.67 6.7 0.34 3.4 0 0 Z " fill="#556C7C" transform="translate(217,111)"/>
<path d="M0 0 C0.66 0.66 1.32 1.32 2 2 C1.96712417 4.72869407 1.43602229 7.2966618 1 10 C0.34 9.67 -0.32 9.34 -1 9 C-0.67 6.03 -0.34 3.06 0 0 Z " fill="#1A2733" transform="translate(56,108)"/>
<path d="M0 0 C0.66 0 1.32 0 2 0 C4.1875 2.3125 4.1875 2.3125 6 5 C5.67 5.99 5.34 6.98 5 8 C4.54625 7.525625 4.0925 7.05125 3.625 6.5625 C2.06741796 4.90972192 2.06741796 4.90972192 0 4 C0 2.68 0 1.36 0 0 Z " fill="#5E6D7A" transform="translate(187,92)"/>
<path d="M0 0 C2.88575819 0.39803561 3.82189513 0.79009069 5.75 3.0625 C6.1625 3.701875 6.575 4.34125 7 5 C5.02 5 3.04 5 1 5 C0.67 3.35 0.34 1.7 0 0 Z " fill="#0B2948" transform="translate(84,202)"/>
<path d="M0 0 C1.32 0 2.64 0 4 0 C4.33 2.31 4.66 4.62 5 7 C2.47411298 4.63707344 1.11179163 3.33537489 0 0 Z " fill="#4D6177" transform="translate(45,198)"/>
<path d="M0 0 C1.32 0 2.64 0 4 0 C4 2.31 4 4.62 4 7 C2 5.1875 2 5.1875 0 3 C0 2.01 0 1.02 0 0 Z " fill="#394B5E" transform="translate(241,103)"/>
<path d="M0 0 C0 0.99 0 1.98 0 3 C-2.97 3 -5.94 3 -9 3 C-8.67 2.34 -8.34 1.68 -8 1 C-5.30114269 0.42577504 -2.76207303 0 0 0 Z " fill="#4E6373" transform="translate(107,29)"/>
</svg>
